<svg xmlns="http://www.w3.org/2000/svg" width="34.802" height="36" viewBox="0 0 34.802 36">
  <path id="moneybag" d="M25.523,35.964Q23.892,36,17.4,36t-8.121-.036a39.762,39.762,0,0,1-6.943-.616Q0,34.841,0,33.644a12.064,12.064,0,0,1,.725-2.918q.725-2.193,1.6-4.6a48.917,48.917,0,0,0,1.6-5.547,24.81,24.81,0,0,0,.725-5.493q0-6.961,12.761-6.961t12.761,6.961a24.807,24.807,0,0,0,.725,5.492,48.917,48.917,0,0,0,1.595,5.547q.87,2.411,1.6,4.6a12.064,12.064,0,0,1,.725,2.918q0,1.2-2.338,1.7A39.649,39.649,0,0,1,25.523,35.964ZM17.4,16.242a12.541,12.541,0,0,1,4.115.58q1.65.58,1.686,1.7v.036a1.16,1.16,0,0,0,2.32,0q0-4.242-6.961-4.6v-1.2a1.16,1.16,0,0,0-2.32,0v1.2q-6.961.363-6.961,4.6a3.647,3.647,0,0,0,.236,1.378,2.19,2.19,0,0,0,.761.961,4.911,4.911,0,0,0,1.142.616,6.716,6.716,0,0,0,1.631.344q1.014.109,1.958.145t2.393.036a12.315,12.315,0,0,1,4.151.6q1.649.6,1.649,1.724t-1.65,1.722a12.384,12.384,0,0,1-4.15.6,12.541,12.541,0,0,1-4.115-.58q-1.65-.58-1.686-1.7v-.036a1.16,1.16,0,0,0-2.32,0q0,4.242,6.961,4.6v1.2a1.16,1.16,0,0,0,2.32,0v-1.2q6.961-.363,6.961-4.6,0-4.64-8.121-4.64-.508,0-1.269.018t-1.233.036q-.472.018-1.051,0a5.889,5.889,0,0,1-.943-.091,4.172,4.172,0,0,1-.689-.2.918.918,0,0,1-.471-.363,1.044,1.044,0,0,1-.145-.562q0-1.124,1.668-1.722A12.353,12.353,0,0,1,17.4,16.242ZM17.4,5.8a33.557,33.557,0,0,0-3.988.218,29,29,0,0,1-1.287-2.955,7.233,7.233,0,0,1-.526-1.9q0-.58.943-1.16a8.287,8.287,0,0,0,2.211.834A11.177,11.177,0,0,0,17.4,1.16,11.177,11.177,0,0,0,20.049.834,8.287,8.287,0,0,0,22.26,0q.943.58.943,1.16a7.236,7.236,0,0,1-.526,1.9A29,29,0,0,1,21.39,6.018,33.557,33.557,0,0,0,17.4,5.8Z" fill="#fff"/>
</svg>
