<svg xmlns="http://www.w3.org/2000/svg" width="32.362" height="22.654" viewBox="0 0 32.362 22.654">
  <path id="bxs-discount" d="M33.744,7.5H4.618A1.618,1.618,0,0,0,3,9.118v6.472H4.446a3.359,3.359,0,0,1,3.366,2.693,3.238,3.238,0,0,1-3.193,3.78H3v6.472a1.618,1.618,0,0,0,1.618,1.618H33.744a1.618,1.618,0,0,0,1.618-1.618V22.063H33.744a3.238,3.238,0,0,1-3.193-3.78,3.359,3.359,0,0,1,3.366-2.693h1.446V9.118A1.618,1.618,0,0,0,33.744,7.5ZM14.327,13.972a1.618,1.618,0,1,1-1.618,1.618A1.618,1.618,0,0,1,14.327,13.972ZM13.032,24.328l9.709-12.945,2.589,1.942L15.621,26.27l-2.589-1.942Zm11-.647a1.618,1.618,0,1,1,1.618-1.618A1.618,1.618,0,0,1,24.035,23.681Z" transform="translate(-3 -7.5)" fill="#fff"/>
</svg>
