<svg xmlns="http://www.w3.org/2000/svg" width="22.325" height="24.709" viewBox="0 0 22.325 24.709">
  <path id="share" d="M18.6,17.691a3.432,3.432,0,0,1,2.558,1.076,3.65,3.65,0,0,1,0,5.117,3.58,3.58,0,0,1-5.117,0A3.577,3.577,0,0,1,15,21.3a6.7,6.7,0,0,1,.058-.814L6.279,15.367a3.719,3.719,0,0,1-2.558.989,3.6,3.6,0,0,1-2.645-1.076A3.594,3.594,0,0,1,0,12.633,3.6,3.6,0,0,1,1.076,9.988,3.6,3.6,0,0,1,3.721,8.913,3.721,3.721,0,0,1,6.279,9.9L15,4.843a4.153,4.153,0,0,1-.117-.872,3.6,3.6,0,0,1,1.076-2.645,3.791,3.791,0,0,1,5.291,0,3.561,3.561,0,0,1,1.076,2.616A3.659,3.659,0,0,1,21.25,6.587a3.545,3.545,0,0,1-2.645,1.1,3.608,3.608,0,0,1-2.558-1.046L7.325,11.761a4.153,4.153,0,0,1,.117.872,4.153,4.153,0,0,1-.117.872l8.837,5.116A3.561,3.561,0,0,1,18.6,17.691Z" transform="translate(0 -0.25)" fill="#fff"/>
</svg>
