<svg xmlns="http://www.w3.org/2000/svg" width="32.651" height="32.652" viewBox="0 0 32.651 32.652">
  <path id="userfilter" d="M31.638,8.162,19.522,23.085,18.375,30.61a2.041,2.041,0,1,1-4.082,0l-1.148-7.525L1.029,8.162.3,7.142A1.984,1.984,0,0,1,.615,4.687a1.96,1.96,0,0,1,1.434-.606h8.162a17.578,17.578,0,0,0,.51,5.2q-2.551,1.5-2.551,5.325a.951.951,0,0,0,.367.734,2.619,2.619,0,0,0,1.132.494q.765.175,1.467.287a14.641,14.641,0,0,0,1.818.143l1.722.048q.606.016,1.658.016t1.658-.016l1.722-.048a14.64,14.64,0,0,0,1.818-.143q.7-.112,1.467-.287a2.619,2.619,0,0,0,1.132-.494A.951.951,0,0,0,24.5,14.6q0-3.827-2.551-5.325a17.578,17.578,0,0,0,.51-5.2h8.162a1.946,1.946,0,0,1,1.451.606,1.986,1.986,0,0,1,.59,1.434,1.951,1.951,0,0,1-.287,1.02ZM18.374,8.7v1.69a7.238,7.238,0,0,1,2.918,1.18,2.422,2.422,0,0,1,1.164,1.849q0,.861-6.122.861t-6.122-.861a2.42,2.42,0,0,1,1.164-1.849,7.255,7.255,0,0,1,2.918-1.18V8.64q-2.041-1.307-2.041-5.293A2.911,2.911,0,0,1,13.4.844,4.818,4.818,0,0,1,16.334,0a4.818,4.818,0,0,1,2.933.845,2.911,2.911,0,0,1,1.148,2.5q0,4.177-2.041,5.356Z" transform="translate(-0.009 0.001)" fill="#707070"/>
</svg>
