<svg xmlns="http://www.w3.org/2000/svg" width="41.761" height="12.799" viewBox="0 0 41.761 12.799">
  <path id="visa" d="M30.355,13.006a8.684,8.684,0,0,0-3.028-.524c-3.341,0-5.7,1.684-5.717,4.1-.021,1.775,1.677,2.774,2.959,3.369,1.317.609,1.757.992,1.754,1.541-.008.831-1.052,1.205-2.022,1.205a7.157,7.157,0,0,1-3.187-.653l-.415-.194-.472,2.781a11.334,11.334,0,0,0,3.784.653c3.551,0,5.873-1.673,5.9-4.245.028-1.415-.887-2.488-2.82-3.372-1.173-.574-1.9-.959-1.9-1.542,0-.515.624-1.065,1.929-1.065a6.194,6.194,0,0,1,2.532.476l.313.14.472-2.687L30.354,13Zm8.67-.3h-2.61a1.688,1.688,0,0,0-1.776,1.028L29.62,25.108h3.551l.71-1.862,4.333,0c.106.435.418,1.858.418,1.858h3.13l-2.735-12.4Zm-22.217-.1H20.19L18.075,25.013H14.693L16.809,12.6ZM8.214,19.443l.351,1.723,3.308-8.454h3.583l-5.326,12.38H6.556L3.633,14.606a.693.693,0,0,0-.313-.412A14.288,14.288,0,0,0,0,12.963L.044,12.7H5.492a1.417,1.417,0,0,1,1.537,1.051l1.187,5.7v-.006Zm26.636,1.266,1.349-3.47c-.017.035.278-.717.449-1.183l.232,1.07.781,3.579h-2.81v0Z" transform="translate(0 -12.482)" fill="#707070"/>
</svg>
